<?xml version="1.0" standalone="no"?>
<!DOCTYPE svg PUBLIC "-//W3C//DTD SVG 20010904//EN"
 "http://www.w3.org/TR/2001/REC-SVG-20010904/DTD/svg10.dtd">
<svg version="1.0" xmlns="http://www.w3.org/2000/svg"
 width="3750.000000pt" height="3750.000000pt" viewBox="0 0 3750.000000 3750.000000"
 preserveAspectRatio="xMidYMid meet">

<g transform="translate(0.000000,3750.000000) scale(0.100000,-0.100000)"
fill="#000000" stroke="none">
<path d="M12670 30173 c-247 -18 -501 -101 -697 -228 -106 -69 -288 -249 -355
-350 -156 -239 -227 -492 -228 -803 0 -490 191 -886 552 -1142 350 -250 872
-320 1309 -177 211 70 370 166 525 321 260 259 383 577 384 988 0 166 -11 261
-45 398 -31 121 -55 182 -116 300 -65 125 -126 205 -240 316 -230 222 -500
340 -855 374 -106 10 -139 10 -234 3z"/>
<path d="M8625 28109 c-655 -23 -1332 -134 -2073 -341 l-184 -51 6 -30 c3 -16
6 -46 6 -67 l0 -38 58 -6 c171 -21 555 -83 747 -121 1283 -257 2271 -706 2951
-1340 123 -115 250 -252 241 -261 -3 -3 -68 4 -144 15 -429 64 -790 63 -1197
-4 -830 -137 -1665 -572 -2276 -1183 -94 -95 -159 -167 -152 -170 7 -2 57 1
110 7 297 33 773 61 1047 61 700 0 1319 -98 1775 -282 716 -289 1156 -765
1345 -1455 71 -259 99 -485 99 -808 0 -444 -55 -845 -186 -1360 -166 -658
-416 -1309 -793 -2070 -417 -841 -912 -1650 -1366 -2231 -49 -62 -89 -117 -89
-121 0 -5 20 -28 44 -52 30 -29 49 -41 58 -35 22 13 371 308 543 458 501 439
1191 1110 1566 1526 805 891 1397 1707 1866 2575 779 1440 1075 2869 847 4085
-213 1137 -857 2052 -1856 2636 -667 391 -1566 635 -2425 659 -103 3 -226 7
-273 8 -47 2 -179 0 -295 -4z"/>
<path d="M15385 23759 c-225 -24 -447 -132 -609 -296 -91 -94 -140 -162 -191
-268 -154 -317 -128 -711 65 -989 49 -71 150 -175 236 -242 191 -149 408 -224
654 -225 276 -2 527 101 734 300 158 153 253 331 290 543 8 46 14 83 13 84 -1
1 -302 4 -669 7 l-668 5 0 -84 0 -84 398 -1 c218 -1 468 -4 555 -8 l157 -6
-35 -75 c-112 -232 -344 -424 -586 -484 -187 -46 -471 4 -655 116 -137 82
-273 230 -335 363 -83 176 -94 411 -29 601 87 252 320 470 582 545 93 26 287
36 384 20 211 -37 366 -124 503 -286 l64 -75 105 0 104 0 -27 48 c-52 89 -126
181 -211 261 -195 185 -487 266 -829 230z"/>
<path d="M27228 23759 c-130 -11 -241 -42 -353 -99 -113 -58 -188 -114 -281
-212 -83 -88 -118 -137 -168 -235 -105 -210 -130 -510 -61 -748 93 -322 366
-599 677 -689 336 -97 691 -24 945 196 62 53 147 149 190 216 56 86 59 82 -59
82 l-105 0 -46 -59 c-76 -98 -223 -199 -363 -250 -239 -87 -498 -58 -709 79
-195 128 -337 339 -375 556 -19 105 -8 310 20 399 88 283 340 514 619 571 103
20 301 15 401 -11 153 -40 309 -142 405 -264 l48 -61 103 0 c57 0 104 4 104 9
0 5 -23 44 -51 87 -60 92 -168 202 -258 264 -125 84 -307 151 -446 164 -38 4
-86 8 -105 10 -19 2 -79 0 -132 -5z"/>
<path d="M21380 22996 c0 -468 4 -774 11 -823 24 -183 131 -312 309 -374 62
-21 83 -23 413 -27 l347 -4 0 91 0 90 -342 3 c-308 3 -347 5 -386 22 -48 21
-101 78 -134 145 l-23 46 -3 788 -3 787 -94 0 -95 0 0 -744z"/>
<path d="M22520 23575 l0 -165 95 0 95 0 0 165 0 165 -95 0 -95 0 0 -165z"/>
<path d="M22930 22755 l0 -985 105 0 105 0 0 143 0 142 111 140 c61 77 116
141 122 142 7 1 117 -126 246 -282 l234 -285 119 0 c67 0 117 4 114 9 -3 5
-138 168 -300 362 -173 208 -291 358 -287 364 100 128 541 716 541 720 0 3
-51 5 -113 5 l-113 0 -339 -441 -340 -441 -3 696 -2 696 -100 0 -100 0 0 -985z"/>
<path d="M19700 23363 l0 -366 -58 55 c-213 204 -533 260 -800 142 -151 -67
-315 -235 -387 -398 -44 -100 -58 -173 -59 -306 0 -224 64 -381 219 -535 102
-101 183 -153 300 -192 71 -23 96 -26 225 -27 131 0 153 2 223 26 237 80 431
281 503 523 16 55 18 123 21 753 l4 692 -96 0 -95 0 0 -367z m-368 -322 c153
-59 296 -214 345 -376 26 -90 25 -259 -4 -350 -45 -144 -167 -288 -298 -350
-125 -61 -279 -67 -422 -19 -144 49 -288 198 -343 355 -28 81 -36 212 -20 308
34 200 208 388 413 446 76 22 254 14 329 -14z"/>
<path d="M24850 23254 c-140 -28 -309 -128 -414 -245 -63 -70 -131 -187 -156
-268 -43 -138 -45 -328 -4 -461 57 -189 217 -376 403 -469 319 -162 745 -45
945 258 36 54 86 152 86 167 0 2 -45 4 -99 4 l-99 0 -32 -57 c-45 -80 -132
-163 -211 -202 -67 -33 -188 -60 -269 -60 -191 -1 -416 132 -498 294 -34 69
-62 156 -62 197 l0 28 656 0 657 0 -5 113 c-6 134 -36 234 -103 342 -80 129
-223 255 -350 310 -135 58 -309 77 -445 49z m340 -208 c93 -32 156 -74 230
-152 65 -70 103 -136 131 -226 l17 -58 -564 0 c-465 0 -564 2 -564 13 0 25 40
130 67 176 60 104 189 212 294 246 122 41 270 41 389 1z"/>
<path d="M17241 23245 c-176 -40 -355 -173 -463 -346 -79 -125 -110 -242 -110
-409 1 -230 76 -398 248 -559 163 -153 395 -219 628 -181 255 42 494 257 583
525 23 70 27 97 27 220 1 120 -2 150 -22 215 -78 248 -264 441 -497 516 -101
33 -292 42 -394 19z m285 -176 c194 -35 377 -217 430 -429 24 -95 15 -253 -19
-342 -72 -187 -238 -336 -411 -367 -119 -22 -265 -3 -363 48 -107 54 -220 181
-267 298 -61 152 -56 346 14 483 55 107 177 227 278 272 96 43 226 57 338 37z"/>
<path d="M28841 23245 c-176 -40 -355 -173 -463 -346 -79 -125 -110 -242 -110
-409 1 -230 76 -398 248 -559 163 -153 395 -219 628 -181 255 42 494 257 583
525 23 70 27 97 27 220 1 120 -2 150 -22 215 -78 248 -264 441 -497 516 -101
33 -292 42 -394 19z m285 -176 c194 -35 377 -217 430 -429 24 -95 15 -253 -19
-342 -72 -187 -238 -336 -411 -367 -119 -22 -265 -3 -363 48 -107 54 -220 181
-267 298 -61 152 -56 346 14 483 55 107 177 227 278 272 96 43 226 57 338 37z"/>
<path d="M22520 22500 l0 -730 95 0 95 0 0 730 0 730 -95 0 -95 0 0 -730z"/>
<path d="M25920 21915 l0 -165 95 0 95 0 0 165 0 165 -95 0 -95 0 0 -165z"/>
</g>
</svg>
