<?xml version="1.0" encoding="utf-8"?>
<!-- Generator: Adobe Illustrator 27.5.0, SVG Export Plug-In . SVG Version: 6.00 Build 0)  -->
<svg version="1.1" id="Layer_1" xmlns="http://www.w3.org/2000/svg" xmlns:xlink="http://www.w3.org/1999/xlink" x="0px" y="0px"
	 viewBox="0 0 400 400" style="enable-background:new 0 0 400 400;" xml:space="preserve">
<style type="text/css">
	.st0{opacity:0.25;fill:url(#SVGID_1_);}
	.st1{fill:url(#SVGID_00000012443530552454927750000018422256199086604188_);}
	.st2{fill:url(#SVGID_00000165210599953652528700000014401856023122735035_);}
	.st3{opacity:0.2;fill:url(#SVGID_00000150801924879418926510000018102974213027982734_);}
	.st4{fill:none;}
	.st5{opacity:0.15;fill:url(#SVGID_00000035506618536663041120000005942342359756534190_);}
	.st6{opacity:0.5;fill:url(#SVGID_00000179635576715209849550000013321823130620926362_);}
	.st7{fill:url(#SVGID_00000094582856276005724450000011094613417556592781_);}
	.st8{opacity:0.03;fill:none;stroke:#FFFFFF;stroke-width:2;stroke-miterlimit:10;}
	.st9{opacity:0.5;fill:url(#SVGID_00000111879954124744136200000014967045985186710929_);}
	.st10{fill:url(#SVGID_00000152980260683320341410000013802255741209247420_);}
	.st11{fill:url(#SVGID_00000044861157071389948020000013070243882404805777_);}
	.st12{fill:url(#SVGID_00000073711509625565740680000000559514140671646645_);}
	.st13{fill:url(#SVGID_00000078017449748833353110000008419837988756561319_);}
	.st14{fill:url(#SVGID_00000105416436464178952420000017453764721592981895_);}
</style>
<g>
	<g>
		<path d="M84.92,49.98c-1.02,10.61-2.28,21.2-3.81,31.76c-1.38,9.49-2.82,19.34-7.31,27.94c-1.88,3.6-4.36,7.03-7.64,9.5
			c-1.57,1.18-3.33,2.14-5.21,2.73c-0.9,0.28-1.93,0.75-2.28-0.38c-0.27-0.86-0.32-1.83-0.39-2.72c-0.57-7.41,2.02-14.88,6.63-20.66
			c4.73-5.93,11.51-10.1,19.11-10.95c9.82-1.09,19.4,2.24,28.8,4.54c9.42,2.3,18.82,3.03,28.44,1.69c9.37-1.3,18.44-4.33,26.95-8.4
			c17.5-8.36,32.33-21.26,46.49-34.28c1.77-1.62,3.53-3.26,5.29-4.89c1.42-1.31-0.71-3.43-2.12-2.12
			c-14.83,13.74-29.92,27.75-48.01,37.12c-8.81,4.56-18.28,7.94-28.1,9.48c-4.89,0.76-9.88,1.01-14.82,0.71
			c-5.06-0.31-9.99-1.36-14.89-2.59c-9.79-2.47-19.8-5.62-30-3.99c-7.86,1.26-14.86,5.87-19.7,12.11
			c-4.75,6.13-7.57,13.92-7.12,21.73c0.11,1.85,0.14,4.39,1.46,5.84c1.53,1.68,3.87,1.11,5.76,0.44c4.02-1.45,7.43-4.18,10.08-7.48
			c6.11-7.61,8.64-17.41,10.27-26.85c1.83-10.58,3.12-21.28,4.27-31.95c0.3-2.76,0.58-5.53,0.85-8.3
			C88.1,48.06,85.1,48.07,84.92,49.98L84.92,49.98z"/>
	</g>
</g>
<g>
	<radialGradient id="SVGID_1_" cx="104.6074" cy="59.4724" r="16.9685" gradientUnits="userSpaceOnUse">
		<stop  offset="0.1" style="stop-color:#000000"/>
		<stop  offset="0.1478" style="stop-color:#191407"/>
		<stop  offset="0.2051" style="stop-color:#2F260D"/>
		<stop  offset="0.2728" style="stop-color:#403312"/>
		<stop  offset="0.3565" style="stop-color:#4B3D16"/>
		<stop  offset="0.474" style="stop-color:#524217"/>
		<stop  offset="0.8" style="stop-color:#544418"/>
		<stop  offset="1" style="stop-color:#000000"/>
	</radialGradient>
	<circle class="st0" cx="104.61" cy="59.47" r="16.97"/>
	
		<radialGradient id="SVGID_00000075143316343986359340000017329475851216609962_" cx="162.3459" cy="47.6622" r="0.5656" gradientUnits="userSpaceOnUse">
		<stop  offset="0" style="stop-color:#CAE095"/>
		<stop  offset="0.0582" style="stop-color:#A8BA7C"/>
		<stop  offset="0.1353" style="stop-color:#818F5F"/>
		<stop  offset="0.2184" style="stop-color:#5E6845"/>
		<stop  offset="0.3066" style="stop-color:#414830"/>
		<stop  offset="0.4013" style="stop-color:#292E1E"/>
		<stop  offset="0.5049" style="stop-color:#171911"/>
		<stop  offset="0.622" style="stop-color:#0A0B07"/>
		<stop  offset="0.764" style="stop-color:#020302"/>
		<stop  offset="1" style="stop-color:#000000"/>
	</radialGradient>
	<circle style="fill:url(#SVGID_00000075143316343986359340000017329475851216609962_);" cx="162.35" cy="47.66" r="0.57"/>
	
		<radialGradient id="SVGID_00000103261470946691544440000005785248888092175754_" cx="172.092" cy="45.6687" r="0.5656" gradientUnits="userSpaceOnUse">
		<stop  offset="0" style="stop-color:#CAE095"/>
		<stop  offset="0.0582" style="stop-color:#A8BA7C"/>
		<stop  offset="0.1353" style="stop-color:#818F5F"/>
		<stop  offset="0.2184" style="stop-color:#5E6845"/>
		<stop  offset="0.3066" style="stop-color:#414830"/>
		<stop  offset="0.4013" style="stop-color:#292E1E"/>
		<stop  offset="0.5049" style="stop-color:#171911"/>
		<stop  offset="0.622" style="stop-color:#0A0B07"/>
		<stop  offset="0.764" style="stop-color:#020302"/>
		<stop  offset="1" style="stop-color:#000000"/>
	</radialGradient>
	<circle style="fill:url(#SVGID_00000103261470946691544440000005785248888092175754_);" cx="172.09" cy="45.67" r="0.57"/>
	
		<radialGradient id="SVGID_00000114784740215675889670000005496839993315024297_" cx="169.3926" cy="46.2209" r="4.2421" gradientUnits="userSpaceOnUse">
		<stop  offset="0.05" style="stop-color:#000000"/>
		<stop  offset="0.0884" style="stop-color:#030904"/>
		<stop  offset="0.2952" style="stop-color:#133315"/>
		<stop  offset="0.4817" style="stop-color:#1F5222"/>
		<stop  offset="0.6396" style="stop-color:#256529"/>
		<stop  offset="0.75" style="stop-color:#286C2C"/>
		<stop  offset="0.7903" style="stop-color:#4C6C19"/>
		<stop  offset="0.8355" style="stop-color:#6E6B07"/>
		<stop  offset="0.86" style="stop-color:#7B6B00"/>
		<stop  offset="0.8879" style="stop-color:#776800"/>
		<stop  offset="0.9129" style="stop-color:#6D5E00"/>
		<stop  offset="0.9366" style="stop-color:#5A4F00"/>
		<stop  offset="0.9597" style="stop-color:#413800"/>
		<stop  offset="0.9821" style="stop-color:#201C00"/>
		<stop  offset="1" style="stop-color:#000000"/>
	</radialGradient>
	
		<circle style="opacity:0.2;fill:url(#SVGID_00000114784740215675889670000005496839993315024297_);" cx="169.39" cy="46.22" r="4.24"/>
	<line class="st4" x1="118.1" y1="56.71" x2="172.09" y2="45.67"/>
	
		<radialGradient id="SVGID_00000039116791827063715130000016592691024661474971_" cx="118.1043" cy="56.7117" r="11.3123" gradientUnits="userSpaceOnUse">
		<stop  offset="0" style="stop-color:#230000"/>
		<stop  offset="0.73" style="stop-color:#93432A"/>
		<stop  offset="1" style="stop-color:#230000"/>
	</radialGradient>
	
		<circle style="opacity:0.15;fill:url(#SVGID_00000039116791827063715130000016592691024661474971_);" cx="118.1" cy="56.71" r="11.31"/>
	
		<radialGradient id="SVGID_00000012461388571070938560000013940459178057556106_" cx="118.1043" cy="56.7117" r="5.6562" gradientUnits="userSpaceOnUse">
		<stop  offset="0.15" style="stop-color:#FFFFFF"/>
		<stop  offset="0.2114" style="stop-color:#E2D1D2"/>
		<stop  offset="0.2918" style="stop-color:#BF9A9C"/>
		<stop  offset="0.3613" style="stop-color:#A67276"/>
		<stop  offset="0.4163" style="stop-color:#975A5E"/>
		<stop  offset="0.45" style="stop-color:#915155"/>
		<stop  offset="0.5553" style="stop-color:#6C3638"/>
		<stop  offset="0.6842" style="stop-color:#44191A"/>
		<stop  offset="0.787" style="stop-color:#2C0707"/>
		<stop  offset="0.85" style="stop-color:#230000"/>
		<stop  offset="0.8572" style="stop-color:#270201"/>
		<stop  offset="0.8647" style="stop-color:#340805"/>
		<stop  offset="0.8723" style="stop-color:#48120B"/>
		<stop  offset="0.88" style="stop-color:#652114"/>
		<stop  offset="0.8878" style="stop-color:#8B331F"/>
		<stop  offset="0.8955" style="stop-color:#B8492D"/>
		<stop  offset="0.9" style="stop-color:#D65836"/>
		<stop  offset="0.903" style="stop-color:#C95232"/>
		<stop  offset="0.9146" style="stop-color:#9D3C25"/>
		<stop  offset="0.9267" style="stop-color:#782A1A"/>
		<stop  offset="0.9392" style="stop-color:#591B10"/>
		<stop  offset="0.9523" style="stop-color:#410F09"/>
		<stop  offset="0.9661" style="stop-color:#300604"/>
		<stop  offset="0.9812" style="stop-color:#260201"/>
		<stop  offset="1" style="stop-color:#230000"/>
	</radialGradient>
	
		<circle style="opacity:0.5;fill:url(#SVGID_00000012461388571070938560000013940459178057556106_);" cx="118.1" cy="56.71" r="5.66"/>
	
		<radialGradient id="SVGID_00000010305238569120308520000018102107984030330010_" cx="118.1043" cy="56.7117" r="4.7135" gradientUnits="userSpaceOnUse">
		<stop  offset="0.15" style="stop-color:#FFFFFF"/>
		<stop  offset="0.2824" style="stop-color:#C2C2C2"/>
		<stop  offset="0.4253" style="stop-color:#888888"/>
		<stop  offset="0.5636" style="stop-color:#575757"/>
		<stop  offset="0.6936" style="stop-color:#313131"/>
		<stop  offset="0.8134" style="stop-color:#161616"/>
		<stop  offset="0.9192" style="stop-color:#060606"/>
		<stop  offset="1" style="stop-color:#000000"/>
	</radialGradient>
	<circle style="fill:url(#SVGID_00000010305238569120308520000018102107984030330010_);" cx="118.1" cy="56.71" r="4.71"/>
	<polyline class="st8" points="118.1,56.71 131.9,50.53 118.1,56.71 104.31,62.89 118.1,56.71 124.29,70.51 118.1,56.71 
		111.92,42.92 118.1,56.71 134.1,73.42 118.1,56.71 102.11,40 118.1,56.71 101.39,72.7 118.1,56.71 134.82,40.72 118.1,56.71 
		121.67,59.07 118.1,56.71 114.54,54.36 118.1,56.71 115.75,60.27 118.1,56.71 120.46,53.15 118.1,56.71 123.44,53.17 118.1,56.71 
		112.77,60.25 118.1,56.71 121.64,62.05 118.1,56.71 114.57,51.38 118.1,56.71 142.31,69.2 118.1,56.71 93.9,44.22 118.1,56.71 
		105.61,80.92 118.1,56.71 130.6,32.5 118.1,56.71 128.11,61.94 118.1,56.71 108.09,51.49 118.1,56.71 112.88,66.72 118.1,56.71 
		123.33,46.7 118.1,56.71 129.07,57.9 118.1,56.71 107.14,55.52 118.1,56.71 116.91,67.68 118.1,56.71 119.3,45.75 118.1,56.71 
		132.72,55.51 118.1,56.71 103.49,57.92 118.1,56.71 119.31,71.32 118.1,56.71 116.9,42.1 118.1,56.71 133.05,58.98 118.1,56.71 
		103.16,54.44 118.1,56.71 115.84,71.66 118.1,56.71 120.37,41.76 118.1,56.71 126.66,60.66 118.1,56.71 109.55,52.76 118.1,56.71 
		114.16,65.27 118.1,56.71 122.05,48.16 118.1,56.71 123.43,59.4 118.1,56.71 112.78,54.03 118.1,56.71 115.42,62.04 118.1,56.71 
		120.79,51.39 118.1,56.71 141.9,69 118.1,56.71 94.31,44.42 118.1,56.71 105.81,80.51 118.1,56.71 130.39,32.92 118.1,56.71 
		125.13,64.96 118.1,56.71 111.08,48.46 118.1,56.71 109.85,63.74 118.1,56.71 126.36,49.69 118.1,56.71 124.75,60.43 118.1,56.71 
		111.46,52.99 118.1,56.71 114.39,63.36 118.1,56.71 121.82,50.07 118.1,56.71 142.79,54.38 118.1,56.71 93.42,59.05 118.1,56.71 
		120.44,81.4 118.1,56.71 115.77,32.02 	"/>
	
		<radialGradient id="SVGID_00000044878110059958318810000016686873331707889581_" cx="172.092" cy="45.6687" r="8.4843" gradientUnits="userSpaceOnUse">
		<stop  offset="0.64" style="stop-color:#000000"/>
		<stop  offset="0.7175" style="stop-color:#000200"/>
		<stop  offset="0.7455" style="stop-color:#000902"/>
		<stop  offset="0.7654" style="stop-color:#001405"/>
		<stop  offset="0.7814" style="stop-color:#002509"/>
		<stop  offset="0.7951" style="stop-color:#003B0E"/>
		<stop  offset="0.8" style="stop-color:#004510"/>
		<stop  offset="0.8154" style="stop-color:#182809"/>
		<stop  offset="0.8312" style="stop-color:#2B1204"/>
		<stop  offset="0.8464" style="stop-color:#360501"/>
		<stop  offset="0.86" style="stop-color:#3A0000"/>
		<stop  offset="0.8719" style="stop-color:#250000"/>
		<stop  offset="0.8864" style="stop-color:#140000"/>
		<stop  offset="0.9045" style="stop-color:#090000"/>
		<stop  offset="0.9298" style="stop-color:#020000"/>
		<stop  offset="1" style="stop-color:#000000"/>
	</radialGradient>
	
		<circle style="opacity:0.5;fill:url(#SVGID_00000044878110059958318810000016686873331707889581_);" cx="172.09" cy="45.67" r="8.48"/>
	
		<radialGradient id="SVGID_00000119085030533976220580000008847658524630934431_" cx="131.025" cy="54.0688" r="1.034" gradientUnits="userSpaceOnUse">
		<stop  offset="0.1" style="stop-color:#000000"/>
		<stop  offset="0.2222" style="stop-color:#2A2F31"/>
		<stop  offset="0.3448" style="stop-color:#4D565B"/>
		<stop  offset="0.4703" style="stop-color:#6A767D"/>
		<stop  offset="0.5973" style="stop-color:#819098"/>
		<stop  offset="0.7264" style="stop-color:#91A2AB"/>
		<stop  offset="0.8589" style="stop-color:#9BACB6"/>
		<stop  offset="1" style="stop-color:#9EB0BA"/>
	</radialGradient>
	<circle style="fill:url(#SVGID_00000119085030533976220580000008847658524630934431_);" cx="131.02" cy="54.07" r="1.03"/>
	
		<radialGradient id="SVGID_00000026159684495835776410000013737783942768880027_" cx="118.3836" cy="56.6545" r="0.6137" gradientUnits="userSpaceOnUse">
		<stop  offset="0.1" style="stop-color:#000000"/>
		<stop  offset="0.2464" style="stop-color:#1B0C15"/>
		<stop  offset="0.4262" style="stop-color:#361929"/>
		<stop  offset="0.6101" style="stop-color:#492138"/>
		<stop  offset="0.7989" style="stop-color:#542640"/>
		<stop  offset="1" style="stop-color:#582843"/>
	</radialGradient>
	<circle style="fill:url(#SVGID_00000026159684495835776410000013737783942768880027_);" cx="118.38" cy="56.65" r="0.61"/>
	
		<radialGradient id="SVGID_00000141457447768589467220000010229058650454980280_" cx="124.2059" cy="55.4636" r="0.388" gradientUnits="userSpaceOnUse">
		<stop  offset="0.1" style="stop-color:#7D611B"/>
		<stop  offset="0.2109" style="stop-color:#5F4914"/>
		<stop  offset="0.3608" style="stop-color:#3D2F0D"/>
		<stop  offset="0.514" style="stop-color:#221A07"/>
		<stop  offset="0.6698" style="stop-color:#0F0C03"/>
		<stop  offset="0.8297" style="stop-color:#040301"/>
		<stop  offset="1" style="stop-color:#000000"/>
	</radialGradient>
	<circle style="fill:url(#SVGID_00000141457447768589467220000010229058650454980280_);" cx="124.21" cy="55.46" r="0.39"/>
	
		<radialGradient id="SVGID_00000067939818247061168990000000716116352178727308_" cx="120.5378" cy="56.2139" r="0.8419" gradientUnits="userSpaceOnUse">
		<stop  offset="0.1" style="stop-color:#000000"/>
		<stop  offset="0.1814" style="stop-color:#1E1415"/>
		<stop  offset="0.3105" style="stop-color:#483032"/>
		<stop  offset="0.4426" style="stop-color:#6A474A"/>
		<stop  offset="0.5762" style="stop-color:#85595C"/>
		<stop  offset="0.7121" style="stop-color:#98666A"/>
		<stop  offset="0.8515" style="stop-color:#A36D71"/>
		<stop  offset="1" style="stop-color:#A77074"/>
	</radialGradient>
	<circle style="fill:url(#SVGID_00000067939818247061168990000000716116352178727308_);" cx="120.54" cy="56.21" r="0.84"/>
	
		<radialGradient id="SVGID_00000036252230302705413440000009858387068457519002_" cx="119.3268" cy="56.4616" r="2.5906" gradientUnits="userSpaceOnUse">
		<stop  offset="0.1" style="stop-color:#582843"/>
		<stop  offset="0.2464" style="stop-color:#3D1C2E"/>
		<stop  offset="0.4262" style="stop-color:#220F1A"/>
		<stop  offset="0.6101" style="stop-color:#0F070B"/>
		<stop  offset="0.7989" style="stop-color:#040203"/>
		<stop  offset="1" style="stop-color:#000000"/>
	</radialGradient>
	<circle style="fill:url(#SVGID_00000036252230302705413440000009858387068457519002_);" cx="119.33" cy="56.46" r="2.59"/>
</g>
</svg>
