<?xml version="1.0" encoding="utf-8"?>
<!-- Generator: Adobe Illustrator 27.5.0, SVG Export Plug-In . SVG Version: 6.00 Build 0)  -->
<svg version="1.2" baseProfile="tiny" id="Layer_1" xmlns="http://www.w3.org/2000/svg" xmlns:xlink="http://www.w3.org/1999/xlink"
	 x="0px" y="0px" viewBox="0 0 209 54" overflow="visible" xml:space="preserve">
<g>
	<path fill="#0000B9" stroke="#E9001A" stroke-miterlimit="10" d="M56.2,39.7h-0.6V13.4l-10,26.3H45L35,13.4v26.3h-0.6V11.7l0.6,0
		l10.3,27.1l10.3-27.1l0.6,0V39.7z"/>
	<path fill="#0000B9" stroke="#E9001A" stroke-miterlimit="10" d="M84.7,39.5l-0.5,0.2l-3.5-9.1H67l-3.5,9.1l-0.5-0.2l10.7-28.1
		l0.4,0L84.7,39.5z M80.5,30l-6.6-17.5L67.2,30H80.5z"/>
	<path fill="#0000B9" stroke="#E9001A" stroke-miterlimit="10" d="M112,39.7h-0.6V25.4H92v14.3h-0.6V11.7H92v13h19.3v-13h0.6V39.7z"
		/>
	<path fill="#0000B9" stroke="#E9001A" stroke-miterlimit="10" d="M141.8,29.1l-1.4,4.1l-1.3,2.7l-2.8,2.7l-4.1,1.4h-9.6V11.4h9.6
		l4.1,1.4l2.8,2.7l1.3,2.7l1.4,4.1V29.1z M141.2,29v-6.5l-1.3-3.9l-1.4-2.6l-2.5-2.6l-3.9-1.3h-8.9v27.3h8.9l3.9-1.3l2.5-2.6
		l1.4-2.6L141.2,29z"/>
	<path fill="#0000B9" stroke="#E9001A" stroke-miterlimit="10" d="M151.8,39.7h-0.6V11.7h0.6V39.7z"/>
	<path fill="#0000B9" stroke="#E9001A" stroke-miterlimit="10" d="M180,12h-17v12.7h10.3v0.6H163v14.3h-0.6V11.4H180V12z"/>
	<path fill="#0000B9" stroke="#E9001A" stroke-miterlimit="10" d="M204.7,11.9l-10.6,13.2v14.5h-0.6V25.1L183,11.9l0.4-0.4l10.4,13
		l10.4-13L204.7,11.9z"/>
</g>
<path fill="#0000B9" stroke="#0000B9" stroke-miterlimit="10" d="M2.6,16.4C1.9,30.6,4.1,35.4,7,36.6c4.7,1.9,11.4-6.3,13.8-4.4
	c2.1,1.7-0.2,10.4-3.1,10.7c-4.5,0.4-15.1-18.7-7.5-29.1c2.3-3.2,7.1-6.8,10.9-5.5c8.6,3,5.6,29.8,5.2,32.5"/>
<path fill="#E9001A" stroke="#E9001A" stroke-miterlimit="10" d="M7,9.1c9.7-3.8,19.4-0.9,23.3,5.7c2.1,3.5,3.3,9.6,0.6,11.9
	C25,31.8,2.3,18.2,3.6,13.1c0.4-1.7,3.5-2.4,6.5-2.7"/>
<g>
	<path fill="#0000B9" d="M19.3,32.7c-0.7-2.6-3-3.9-4.9-5.6c-1.9-1.7-2.9-4.3-5.2-5.8c-0.8-0.5-2,0-2.2,0.9c-0.7,2.9,0,5.9,1.1,8.6
		c1.1,2.7,3,5.1,6.1,5.4c-0.3-0.9-0.5-1.9-0.8-2.8c-0.1,0.1-0.2,0.1-0.3,0.2c0.1,0,0.2,0,0.1-0.1c-0.2-0.1,0.3,0.3,0,0
		c-0.2,0.8-0.4,1.7-0.7,2.5c1.2-0.4,2.3-1,2.9-2.1c0.6-1.4,0.2-2.9-1.2-3.6c-0.2-0.1-0.4-0.2-0.6-0.3c-0.1,0-0.2-0.1-0.3-0.1
		c-0.1,0-0.3-0.2-0.1-0.1c-0.3-0.3-0.4-0.4-0.6-0.9c-0.1-0.2,0.1,0.2,0-0.1c0-0.1-0.1-0.2-0.1-0.3c-0.1-0.2-0.1-0.5-0.2-0.7
		c-0.1-0.6-0.1-0.8-0.2-1.3c-0.8,0.4-1.5,0.9-2.3,1.3c1.2,0.8,2.5,1.6,3.7,2.5c0.9,0.7,1.1,1.5,1,2.6c-0.1,0.8,0.7,1.5,1.5,1.5
		c0.9,0,1.4-0.7,1.5-1.5c0.1-1.7-0.4-3.4-1.7-4.5c-1.4-1.2-3-2.1-4.5-3.1c-0.9-0.6-2.4,0.2-2.3,1.3c0.2,1.8,0.5,3.7,1.8,5.1
		c0.3,0.3,0.7,0.6,1.1,0.9c0.1,0.1,1,0.5,1,0.5c-0.2,0.1-0.2-0.4-0.2-0.4c0,0,0,0,0,0c-0.1,0.2-0.1,0.2-0.1,0.1
		c-0.2,0.3-0.6,0.4-1,0.5c-1,0.4-1.5,1.7-0.7,2.5c1,1,2.7,1.2,3.8,0.4c1.2-0.9,0.8-2.6-0.8-2.8c-0.7-0.1-1.5-0.6-2-1.2
		c-0.6-0.7-1.1-1.7-1.4-2.5c-0.7-2-1.5-4.3-0.9-6.4c-0.7,0.3-1.5,0.6-2.2,0.9c0.9,0.6,1.5,1.5,2.1,2.3c0.7,1,1.4,2,2.3,2.9
		c0.8,0.8,1.7,1.4,2.6,2.1c0.2,0.2,0.4,0.4,0.6,0.6c0.1,0.1,0.2,0.2,0.2,0.2c0,0,0.3,0.3,0.2,0.2c0.1,0.2,0.3,0.4,0.4,0.6
		c0,0,0.2,0.3,0.1,0.2c0.1,0.2,0.1,0.3,0.2,0.5C16.9,35.4,19.8,34.6,19.3,32.7L19.3,32.7z"/>
</g>
</svg>
